<svg width="77" height="77" viewBox="0 0 77 77" fill="none" xmlns="http://www.w3.org/2000/svg">
<path d="M13.1962 33.1028H13.196C11.4722 33.1028 10.0747 34.5668 10.0747 36.3727V67.6188C10.0747 69.4247 11.4722 70.8887 13.196 70.8887H13.1962C14.9201 70.8887 16.3175 69.4247 16.3175 67.6188V36.3727C16.3175 34.5668 14.9201 33.1028 13.1962 33.1028Z" fill="#24A3C4"/>
<path d="M29.028 33.1028H29.0279C27.304 33.1028 25.9066 34.5668 25.9066 36.3727V67.6188C25.9066 69.4247 27.304 70.8887 29.0279 70.8887H29.028C30.7519 70.8887 32.1493 69.4247 32.1493 67.6188V36.3727C32.1493 34.5668 30.7519 33.1028 29.028 33.1028Z" fill="#24A3C4"/>
<path d="M44.8598 33.1028H44.8596C43.1358 33.1028 41.7383 34.5668 41.7383 36.3727V67.6188C41.7383 69.4247 43.1358 70.8887 44.8596 70.8887H44.8598C46.5836 70.8887 47.9811 69.4247 47.9811 67.6188V36.3727C47.9811 34.5668 46.5836 33.1028 44.8598 33.1028Z" fill="#24A3C4"/>
<path d="M60.6916 33.1028H60.6914C58.9676 33.1028 57.5701 34.5668 57.5701 36.3727V67.6188C57.5701 69.4247 58.9676 70.8887 60.6914 70.8887H60.6916C62.4154 70.8887 63.8129 69.4247 63.8129 67.6188V36.3727C63.8129 34.5668 62.4154 33.1028 60.6916 33.1028Z" fill="#24A3C4"/>
<path d="M76.0692 73.1245H0V77H76.0692V73.1245Z" fill="#19AEFF"/>
<path d="M35.8866 0.0055466C35.4952 0.00764041 35.0488 0.166536 34.5706 0.493388L3.02596 22.0424C1.4958 23.0883 0.252136 25.4735 0.252136 27.3874C0.252136 28.6835 0.829527 29.4275 1.66938 29.4448C2.16702 29.9114 2.82883 30.2084 3.55224 30.2084H72.9776C74.5372 30.2084 75.7919 28.894 75.7919 27.2602C75.7919 26.9879 75.756 26.7254 75.6907 26.4754C75.8403 26.3923 75.7405 26.1714 75.4477 25.8391C75.4319 25.8212 75.4242 25.8153 75.4072 25.7967C75.0829 25.2033 74.5898 24.7438 73.9697 24.5029C68.856 20.3587 54.0348 10.8334 44.9564 5.09606L38.2143 0.493435C37.5169 0.0167026 36.8773 -0.107691 36.3921 0.0904394C36.2382 0.0267017 36.0682 0.00451688 35.8866 0.0055466Z" fill="#24A3C4"/>
</svg>
