<svg width="66" height="66" viewBox="0 0 66 66" fill="none" xmlns="http://www.w3.org/2000/svg">
<g clip-path="url(#clip0_360_385)">
<rect width="66" height="66" fill="#24A3C4"/>
<mask id="mask0_360_385" style="mask-type:luminance" maskUnits="userSpaceOnUse" x="0" y="0" width="66" height="66">
<path d="M66 0H0V66H66V0Z" fill="white"/>
</mask>
<g mask="url(#mask0_360_385)">
<path d="M49.5 63.9375H16.5H2.0625C2.0625 63.9375 3.48563 56.4712 4.125 53.625C4.55813 51.7275 6.1875 47.4375 22.6875 45.375C22.6875 45.375 24.75 51.5625 33 51.5625C41.25 51.5625 43.3125 45.375 43.3125 45.375C59.8125 47.4375 61.4419 51.6037 61.875 53.625C62.4731 56.4712 63.9375 63.9375 63.9375 63.9375H49.5Z" fill="white"/>
<path d="M47.4375 16.5H45.375H20.625H18.5625C18.5625 8.51812 25.0181 2.0625 33 2.0625C40.9819 2.0625 47.4375 8.51812 47.4375 16.5Z" fill="white"/>
<path d="M2.0625 63.9375C2.0625 63.9375 3.47944 56.4692 4.125 53.625C4.554 51.7337 6.1875 47.4375 22.6875 45.375C22.6875 45.375 24.75 51.5625 33 51.5625C41.25 51.5625 43.3125 45.375 43.3125 45.375C59.8125 47.4375 61.446 51.6058 61.875 53.625C62.4814 56.4795 63.9375 63.9375 63.9375 63.9375M20.625 22.6875C20.625 30.6611 26.8125 37.125 33 37.125C39.1875 37.125 45.375 30.6611 45.375 22.6875M16.5 61.875V63.9375M49.5 61.875V63.9375M12.375 16.5H47.4375C47.4375 8.52638 40.9736 2.0625 33 2.0625C25.0264 2.0625 18.5625 8.52638 18.5625 16.5" stroke="white" stroke-width="5" stroke-linecap="round" stroke-linejoin="round"/>
</g>
</g>
<defs>
<clipPath id="clip0_360_385">
<rect width="66" height="66" fill="white"/>
</clipPath>
</defs>
</svg>
