<svg width="74" height="74" viewBox="0 0 74 74" fill="none" xmlns="http://www.w3.org/2000/svg">
<g clip-path="url(#clip0_206_4)">
<path d="M72.7018 49.1942H68.807V44.0037C68.807 43.0088 68.5111 42.0874 68.0233 41.2967C68.4838 41.0974 68.807 40.6408 68.807 40.1065V33.6177C68.807 32.6228 68.5111 31.7014 68.0233 30.9107C68.4838 30.7114 68.807 30.2548 68.807 29.7204V23.2317C68.807 20.3665 66.4716 18.0363 63.6026 18.0363H44.1518C41.2827 18.0363 38.9474 20.3665 38.9474 23.2317V29.7204C38.9474 30.2546 39.2704 30.7112 39.7311 30.9105C39.2434 31.7013 38.9474 32.6226 38.9474 33.6177V40.1065C38.9474 40.6407 39.2704 41.0972 39.7311 41.2965C39.2434 42.0873 38.9474 43.0087 38.9474 44.0037V49.1942H28.5615V41.4046C28.5615 40.687 27.9808 40.1065 27.2634 40.1065H14.2808C13.7014 40.1065 13.1918 40.4906 13.0321 41.0484L10.7056 49.1942H9.73056C5.14357 49.1942 1.0727 52.9076 0.658044 57.4729L0.00519682 64.6551C-0.0277563 65.019 0.093939 65.3791 0.339931 65.649C0.585923 65.9179 0.933232 66.0712 1.29846 66.0712H5.30097C5.68253 66.0712 6.04516 65.9025 6.29245 65.611C6.53844 65.3195 6.64496 64.934 6.58151 64.5575C6.52197 64.2039 6.49147 63.8386 6.49147 63.4748C6.49147 59.8958 9.40363 56.9837 12.9827 56.9837C16.5617 56.9837 19.4738 59.8958 19.4738 63.4748C19.4738 63.8388 19.4433 64.2039 19.3838 64.5575C19.3204 64.934 19.4269 65.3195 19.6729 65.611C19.92 65.9025 20.2826 66.0712 20.6644 66.0712H27.2634H53.3359C53.7175 66.0712 54.0801 65.9025 54.3274 65.611C54.5734 65.3195 54.6799 64.934 54.6165 64.5575C54.5569 64.2039 54.5264 63.8386 54.5264 63.4748C54.5264 59.8958 57.4386 56.9837 61.0176 56.9837C64.5966 56.9837 67.5088 59.8958 67.5088 63.4748C67.5088 63.8388 67.4783 64.2039 67.4188 64.5575C67.3553 64.934 67.4618 65.3195 67.7078 65.611C67.955 65.9025 68.3176 66.0712 68.6993 66.0712H72.7018C73.4194 66.0712 74 65.4905 74 64.773V50.4923C74 49.7749 73.4194 49.1942 72.7018 49.1942ZM41.5439 38.8083V33.6179C41.5439 32.1853 42.7142 31.0189 44.1518 31.0189H63.6027C65.0404 31.0189 66.2106 32.1853 66.2106 33.6179V38.8083H63.6027H44.1518H41.5439ZM41.5439 23.2319C41.5439 21.7993 42.7142 20.6329 44.1518 20.6329H63.6027C65.0404 20.6329 66.2106 21.7993 66.2106 23.2319V28.4223H63.6027H44.1518H41.5439V23.2319ZM41.5439 44.0037C41.5439 42.5712 42.7142 41.4048 44.1518 41.4048H63.6027C65.0404 41.4048 66.2106 42.5712 66.2106 44.0037V49.1942H41.5441L41.5439 44.0037ZM15.2596 42.703H25.965V49.1942H13.4061L15.2596 42.703ZM12.9827 54.3872C7.97219 54.3872 3.89497 58.4644 3.89497 63.4748H2.71964L3.24458 57.7088C3.5413 54.4454 6.45086 51.7907 9.7307 51.7907H25.965V63.4748H22.0703C22.0703 58.4644 17.9931 54.3872 12.9827 54.3872ZM71.4035 63.4748H70.1053C70.1053 58.4644 66.0281 54.3872 61.0176 54.3872C56.0071 54.3872 51.9299 58.4644 51.9299 63.4748H28.5615V51.7907H40.2457H67.5088H71.4035V63.4748Z" fill="#24A3C4"/>
<path d="M61.0176 58.2819C58.1536 58.2819 55.8246 60.6108 55.8246 63.4749C55.8246 66.3389 58.1536 68.6679 61.0176 68.6679C63.8817 68.6679 66.2106 66.3389 66.2106 63.4749C66.2106 60.6108 63.8817 58.2819 61.0176 58.2819ZM61.0176 66.0714C59.5862 66.0714 58.4211 64.9063 58.4211 63.4749C58.4211 62.0434 59.5862 60.8784 61.0176 60.8784C62.4491 60.8784 63.6141 62.0434 63.6141 63.4749C63.6141 64.9063 62.4489 66.0714 61.0176 66.0714Z" fill="#24A3C4"/>
<path d="M12.9827 58.2819C10.1186 58.2819 7.78966 60.6108 7.78966 63.4749C7.78966 66.3389 10.1186 68.6679 12.9827 68.6679C15.8467 68.6679 18.1757 66.3389 18.1757 63.4749C18.1757 60.6108 15.8467 58.2819 12.9827 58.2819ZM12.9827 66.0714C11.5512 66.0714 10.3862 64.9063 10.3862 63.4749C10.3862 62.0434 11.5512 60.8784 12.9827 60.8784C14.4141 60.8784 15.5792 62.0434 15.5792 63.4749C15.5792 64.9063 14.4141 66.0714 12.9827 66.0714Z" fill="#24A3C4"/>
</g>
<defs>
<clipPath id="clip0_206_4">
<rect width="74" height="74" fill="white"/>
</clipPath>
</defs>
</svg>
