<svg width="74" height="74" viewBox="0 0 74 74" fill="none" xmlns="http://www.w3.org/2000/svg">
<g clip-path="url(#clip0_360_299)">
<rect width="74" height="74" fill="#24A3C4"/>
<path d="M72.7019 49.1942H68.8071V44.0037C68.8071 43.0088 68.5112 42.0874 68.0234 41.2967C68.4839 41.0974 68.8071 40.6408 68.8071 40.1065V33.6177C68.8071 32.6228 68.5112 31.7014 68.0234 30.9107C68.4839 30.7114 68.8071 30.2548 68.8071 29.7204V23.2317C68.8071 20.3665 66.4718 18.0363 63.6027 18.0363H44.1519C41.2828 18.0363 38.9475 20.3665 38.9475 23.2317V29.7204C38.9475 30.2546 39.2705 30.7112 39.7312 30.9105C39.2435 31.7013 38.9475 32.6226 38.9475 33.6177V40.1065C38.9475 40.6407 39.2705 41.0972 39.7312 41.2965C39.2435 42.0873 38.9475 43.0087 38.9475 44.0037V49.1942H28.5616V41.4046C28.5616 40.687 27.9809 40.1065 27.2635 40.1065H14.2809C13.7015 40.1065 13.1919 40.4906 13.0322 41.0484L10.7057 49.1942H9.73067C5.14368 49.1942 1.07281 52.9076 0.658151 57.4729L0.00530363 64.6551C-0.0276495 65.019 0.0940458 65.3791 0.340038 65.649C0.58603 65.9179 0.933339 66.0712 1.29857 66.0712H5.30107C5.68263 66.0712 6.04526 65.9025 6.29256 65.611C6.53855 65.3195 6.64507 64.934 6.58162 64.5575C6.52207 64.2039 6.49158 63.8386 6.49158 63.4748C6.49158 59.8958 9.40374 56.9837 12.9828 56.9837C16.5618 56.9837 19.474 59.8958 19.474 63.4748C19.474 63.8388 19.4435 64.2039 19.3839 64.5575C19.3205 64.934 19.427 65.3195 19.673 65.611C19.9201 65.9025 20.2827 66.0712 20.6645 66.0712H27.2635H53.336C53.7176 66.0712 54.0802 65.9025 54.3275 65.611C54.5735 65.3195 54.68 64.934 54.6166 64.5575C54.557 64.2039 54.5265 63.8386 54.5265 63.4748C54.5265 59.8958 57.4387 56.9837 61.0177 56.9837C64.5967 56.9837 67.5089 59.8958 67.5089 63.4748C67.5089 63.8388 67.4784 64.2039 67.4189 64.5575C67.3554 64.934 67.4619 65.3195 67.7079 65.611C67.9551 65.9025 68.3177 66.0712 68.6994 66.0712H72.7019C73.4195 66.0712 74.0001 65.4905 74.0001 64.773V50.4923C74.0001 49.7749 73.4195 49.1942 72.7019 49.1942ZM41.544 38.8083V33.6179C41.544 32.1853 42.7143 31.0189 44.1519 31.0189H63.6028C65.0405 31.0189 66.2107 32.1853 66.2107 33.6179V38.8083H63.6028H44.1519H41.544ZM41.544 23.2319C41.544 21.7993 42.7143 20.6329 44.1519 20.6329H63.6028C65.0405 20.6329 66.2107 21.7993 66.2107 23.2319V28.4223H63.6028H44.1519H41.544V23.2319ZM41.544 44.0037C41.544 42.5712 42.7143 41.4048 44.1519 41.4048H63.6028C65.0405 41.4048 66.2107 42.5712 66.2107 44.0037V49.1942H41.5442L41.544 44.0037ZM15.2597 42.703H25.9651V49.1942H13.4062L15.2597 42.703ZM12.9828 54.3872C7.9723 54.3872 3.89507 58.4644 3.89507 63.4748H2.71974L3.24468 57.7088C3.5414 54.4454 6.45096 51.7907 9.73081 51.7907H25.9651V63.4748H22.0705C22.0705 58.4644 17.9932 54.3872 12.9828 54.3872ZM71.4036 63.4748H70.1054C70.1054 58.4644 66.0282 54.3872 61.0177 54.3872C56.0073 54.3872 51.93 58.4644 51.93 63.4748H28.5616V51.7907H40.2458H67.5089H71.4036V63.4748Z" fill="white"/>
<path d="M61.0177 58.2819C58.1537 58.2819 55.8247 60.6108 55.8247 63.4749C55.8247 66.3389 58.1537 68.6679 61.0177 68.6679C63.8817 68.6679 66.2107 66.3389 66.2107 63.4749C66.2107 60.6108 63.8817 58.2819 61.0177 58.2819ZM61.0177 66.0714C59.5863 66.0714 58.4212 64.9063 58.4212 63.4749C58.4212 62.0434 59.5863 60.8784 61.0177 60.8784C62.4492 60.8784 63.6142 62.0434 63.6142 63.4749C63.6142 64.9063 62.449 66.0714 61.0177 66.0714Z" fill="white"/>
<path d="M12.9826 58.2819C10.1185 58.2819 7.78955 60.6108 7.78955 63.4749C7.78955 66.3389 10.1185 68.6679 12.9826 68.6679C15.8466 68.6679 18.1756 66.3389 18.1756 63.4749C18.1756 60.6108 15.8466 58.2819 12.9826 58.2819ZM12.9826 66.0714C11.5511 66.0714 10.3861 64.9063 10.3861 63.4749C10.3861 62.0434 11.5511 60.8784 12.9826 60.8784C14.414 60.8784 15.5791 62.0434 15.5791 63.4749C15.5791 64.9063 14.414 66.0714 12.9826 66.0714Z" fill="white"/>
</g>
<defs>
<clipPath id="clip0_360_299">
<rect width="74" height="74" fill="white"/>
</clipPath>
</defs>
</svg>
