<svg width="87" height="68" viewBox="0 0 87 68" fill="none" xmlns="http://www.w3.org/2000/svg">
<path d="M10.1954 56.0179L42.8204 67.4779C42.8883 67.4779 42.9563 67.5453 43.0243 67.5453C43.1602 67.6127 43.3641 67.6127 43.5001 67.6127C43.636 67.6127 43.704 67.6127 43.8399 67.6127C43.8399 67.6127 43.8399 67.6127 43.9079 67.6127C43.9758 67.6127 44.1118 67.5453 44.1797 67.5453L76.8047 56.0854C77.6204 55.8157 78.1641 55.0068 78.1641 54.1978V31.4801L84.961 29.1207C85.5047 28.9185 85.9805 28.4466 86.1844 27.9073C86.3883 27.368 86.3204 26.6939 85.9805 26.1546L77.8243 12.6723L77.7563 12.6049C77.7563 12.5374 77.6883 12.5374 77.6883 12.47C77.6883 12.4026 77.6204 12.4026 77.6204 12.3352C77.6204 12.3352 77.6204 12.3352 77.6204 12.2678C77.5524 12.2004 77.5524 12.2004 77.4844 12.133L77.4165 12.0656L77.3485 11.9981H77.2805L77.2126 11.9307C77.1446 11.8633 77.0766 11.8633 77.0087 11.8633C76.9407 11.8633 76.9407 11.7959 76.8727 11.7959L44.2477 0.335938C44.2477 0.335938 44.2477 0.335938 44.1797 0.335938H44.1118H44.0438C43.9758 0.335938 43.9758 0.335938 43.9079 0.335938C43.8399 0.335938 43.8399 0.335938 43.7719 0.335938C43.704 0.335938 43.704 0.335938 43.636 0.335938C43.568 0.335938 43.5001 0.335938 43.3641 0.335938C43.2962 0.335938 43.2962 0.335938 43.2282 0.335938C43.0922 0.335938 42.9563 0.403348 42.8883 0.403348L10.2633 11.8633C10.1274 11.9307 10.0594 11.9307 9.92349 11.9981L9.85553 12.0656C9.78756 12.133 9.71959 12.133 9.65162 12.2004L9.58365 12.2678C9.51568 12.3352 9.44771 12.3352 9.44771 12.4026L9.37974 12.47C9.31178 12.5374 9.31178 12.6049 9.24381 12.6049C9.24381 12.6049 9.24381 12.6723 9.17584 12.6723L1.01959 26.1546C0.543805 26.8961 0.611774 27.8399 1.15552 28.4466C1.56334 28.9185 2.10709 29.1881 2.71881 29.1881C2.92271 29.1881 3.19459 29.1207 3.39849 29.0533L8.83599 27.1658V54.1304C8.83599 55.0068 9.37974 55.7483 10.1954 56.0179ZM81.2227 26.0872L52.5399 36.1989L46.4907 26.222L75.1735 16.1103L81.2227 26.0872ZM45.5391 5.05475L70.0079 13.6834L45.5391 22.3121V5.05475ZM45.5391 32.4239L49.8891 39.6369C50.2969 40.311 50.9766 40.6481 51.6563 40.6481C51.8602 40.6481 52.1321 40.5807 52.336 40.5133L74.086 32.8958V52.7148L45.5391 62.7591V32.4239ZM12.9141 16.5147L41.461 26.5591V62.6917L12.9141 52.6474V16.5147Z" fill="white"/>
</svg>
