<svg width="87" height="87" viewBox="0 0 87 87" fill="none" xmlns="http://www.w3.org/2000/svg">
<path d="M10.1953 74.0179L42.8203 85.4779C42.8883 85.4779 42.9562 85.5453 43.0242 85.5453C43.1602 85.6127 43.3641 85.6127 43.5 85.6127C43.6359 85.6127 43.7039 85.6127 43.8398 85.6127C43.8398 85.6127 43.8398 85.6127 43.9078 85.6127C43.9758 85.6127 44.1117 85.5453 44.1797 85.5453L76.8047 74.0854C77.6203 73.8157 78.1641 73.0068 78.1641 72.1978V49.4801L84.9609 47.1207C85.5047 46.9185 85.9805 46.4466 86.1844 45.9073C86.3883 45.368 86.3203 44.6939 85.9805 44.1546L77.8242 30.6723L77.7562 30.6049C77.7562 30.5374 77.6883 30.5374 77.6883 30.47C77.6883 30.4026 77.6203 30.4026 77.6203 30.3352C77.6203 30.3352 77.6203 30.3352 77.6203 30.2678C77.5523 30.2004 77.5523 30.2004 77.4844 30.133L77.4164 30.0656L77.3484 29.9981H77.2805L77.2125 29.9307C77.1445 29.8633 77.0766 29.8633 77.0086 29.8633C76.9406 29.8633 76.9406 29.7959 76.8727 29.7959L44.2477 18.3359C44.2477 18.3359 44.2477 18.3359 44.1797 18.3359H44.1117H44.0438C43.9758 18.3359 43.9758 18.3359 43.9078 18.3359C43.8398 18.3359 43.8398 18.3359 43.7719 18.3359C43.7039 18.3359 43.7039 18.3359 43.6359 18.3359C43.568 18.3359 43.5 18.3359 43.3641 18.3359C43.2961 18.3359 43.2961 18.3359 43.2281 18.3359C43.0922 18.3359 42.9562 18.4033 42.8883 18.4033L10.2633 29.8633C10.1273 29.9307 10.0594 29.9307 9.92343 29.9981L9.85546 30.0656C9.78749 30.133 9.71953 30.133 9.65156 30.2004L9.58359 30.2678C9.51562 30.3352 9.44765 30.3352 9.44765 30.4026L9.37968 30.47C9.31171 30.5374 9.31171 30.6049 9.24374 30.6049C9.24374 30.6049 9.24374 30.6723 9.17578 30.6723L1.01953 44.1546C0.543744 44.8961 0.611713 45.8399 1.15546 46.4466C1.56328 46.9185 2.10703 47.1881 2.71874 47.1881C2.92265 47.1881 3.19453 47.1207 3.39843 47.0533L8.83593 45.1658V72.1304C8.83593 73.0068 9.37968 73.7483 10.1953 74.0179ZM81.2227 44.0872L52.5398 54.1989L46.4906 44.222L75.1734 34.1103L81.2227 44.0872ZM45.5391 23.0548L70.0078 31.6834L45.5391 40.3121V23.0548ZM45.5391 50.4239L49.8891 57.6369C50.2969 58.311 50.9766 58.6481 51.6562 58.6481C51.8602 58.6481 52.132 58.5807 52.3359 58.5133L74.0859 50.8958V70.7148L45.5391 80.7591V50.4239ZM12.9141 34.5147L41.4609 44.5591V80.6917L12.9141 70.6474V34.5147Z" fill="#24A3C4"/>
</svg>
