<svg width="65" height="65" viewBox="0 0 65 65" fill="none" xmlns="http://www.w3.org/2000/svg">
<path d="M29.7917 13.5416H56.875M29.7917 32.5H56.875M29.7917 51.4583H56.875" stroke="#24A3C4" stroke-width="4" stroke-linecap="round" stroke-linejoin="round"/>
<path d="M16.25 8.125H10.8333C9.33756 8.125 8.125 9.33756 8.125 10.8333V16.25C8.125 17.7458 9.33756 18.9583 10.8333 18.9583H16.25C17.7458 18.9583 18.9583 17.7458 18.9583 16.25V10.8333C18.9583 9.33756 17.7458 8.125 16.25 8.125Z" fill="#24A3C4" stroke="#24A3C4" stroke-width="4" stroke-linecap="round" stroke-linejoin="round"/>
<path d="M16.25 27.0834H10.8333C9.33756 27.0834 8.125 28.2959 8.125 29.7917V35.2084C8.125 36.7041 9.33756 37.9167 10.8333 37.9167H16.25C17.7458 37.9167 18.9583 36.7041 18.9583 35.2084V29.7917C18.9583 28.2959 17.7458 27.0834 16.25 27.0834Z" fill="#24A3C4" stroke="#24A3C4" stroke-width="4" stroke-linecap="round" stroke-linejoin="round"/>
<path d="M16.25 46.0416H10.8333C9.33756 46.0416 8.125 47.2542 8.125 48.75V54.1666C8.125 55.6624 9.33756 56.875 10.8333 56.875H16.25C17.7458 56.875 18.9583 55.6624 18.9583 54.1666V48.75C18.9583 47.2542 17.7458 46.0416 16.25 46.0416Z" fill="#24A3C4" stroke="#24A3C4" stroke-width="4" stroke-linecap="round" stroke-linejoin="round"/>
</svg>
